<?xml version="1.0" encoding="UTF-8" standalone="no"?>
<svg width="135px" height="130px" viewBox="0 0 135 130" version="1.1" xmlns="http://www.w3.org/2000/svg" xmlns:xlink="http://www.w3.org/1999/xlink" xmlns:sketch="http://www.bohemiancoding.com/sketch/ns">
    <!-- Generator: Sketch 3.4 (15575) - http://www.bohemiancoding.com/sketch -->
    <title>decision</title>
    <desc>Created with Sketch.</desc>
    <defs></defs>
    <g id="Page-1" stroke="none" stroke-width="1" fill="none" fill-rule="evenodd" sketch:type="MSPage">
        <g id="Artboard-1" sketch:type="MSArtboardGroup" transform="translate(-67.000000, -30.000000)" fill="#808080">
            <g id="decision" sketch:type="MSLayerGroup" transform="translate(67.000000, 30.000000)">
                <g id="Group" sketch:type="MSShapeGroup">
                    <path d="M76.582037,58.1371693 L76.582037,41.0493915 L121.197143,41.0493915 L134.126984,28.1150794 L121.18373,15.1762963 L76.5730952,15.1762963 L76.5730952,10.4416138 C76.5730952,7.90214286 75.5850265,5.51021164 73.7877249,3.71291005 C71.9948942,1.91560847 69.5940212,0.923068783 67.0545503,0.923068783 C64.5106085,0.923068783 62.1186772,1.91560847 60.3258466,3.71291005 C58.528545,5.51021164 57.5360053,7.90214286 57.5360053,10.4416138 L57.5360053,36.6544974 L12.9298413,36.6544974 L0,49.5932804 L12.9387831,62.5320635 L57.5449471,62.5320635 L57.5449471,115.163492 L52.4212963,115.163492 C49.2246032,115.163492 46.2201587,116.406402 43.9623545,118.664206 C41.7045503,120.926481 40.4616402,123.930926 40.4616402,127.127619 L40.4616402,129.081402 L44.8520635,129.081402 L44.8520635,127.127619 C44.8520635,125.102302 45.6389418,123.20664 47.0696296,121.780423 C48.4958466,120.349735 50.4004497,119.562857 52.4212963,119.562857 L57.5449471,119.562857 L76.582037,119.562857 L81.7056878,119.562857 C83.7220635,119.562857 85.6266667,120.349735 87.0573545,121.780423 C88.4791005,123.20664 89.2704497,125.102302 89.2704497,127.127619 L89.2704497,129.081402 L93.660873,129.081402 L93.660873,127.127619 C93.660873,123.930926 92.417963,120.926481 90.1601587,118.664206 C87.8978836,116.406402 84.8934392,115.163492 81.7012169,115.163492 L76.5730952,115.163492 L76.5730952,84.0102646 L121.18373,84.0102646 L134.126984,71.0714815 L121.18373,58.1282275 L76.582037,58.1282275 L76.582037,58.1371693 Z M119.368545,19.5667196 L127.907963,28.1106085 L119.368545,36.6544974 L76.582037,36.6544974 L76.582037,19.5667196 L119.368545,19.5667196 L119.368545,19.5667196 L119.368545,19.5667196 Z M14.7584392,58.1371693 L6.21455026,49.5932804 L14.7584392,41.0493915 L57.5449471,41.0493915 L57.5449471,58.1371693 L14.7584392,58.1371693 L14.7584392,58.1371693 Z M72.1871429,115.167963 L61.9353704,115.167963 L61.9353704,62.5320635 L61.9353704,36.6544974 L61.9353704,10.4416138 C61.9353704,9.07351852 62.4674074,7.78589947 63.4375926,6.81571429 C64.4033069,5.8455291 65.6909259,5.31349206 67.0590212,5.31349206 C68.4315873,5.31349206 69.7192063,5.8455291 70.6893915,6.81571429 C71.6595767,7.78589947 72.1916138,9.06904762 72.1916138,10.4416138 L72.1916138,15.1762963 L72.1916138,41.0538624 L72.1916138,58.1416402 L72.1916138,84.0192063 L72.1916138,115.167963 L72.1871429,115.167963 Z M119.368545,79.6198413 L76.582037,79.6198413 L76.582037,62.5410053 L119.368545,62.5410053 L127.907963,71.0804233 L119.368545,79.6198413 L119.368545,79.6198413 Z" id="Shape"></path>
                    <rect id="Rectangle-path" x="86.3464815" y="25.9153968" width="4.39042328" height="4.39042328"></rect>
                    <rect id="Rectangle-path" x="95.1362698" y="25.9153968" width="4.38595238" height="4.39042328"></rect>
                    <rect id="Rectangle-path" x="103.921587" y="25.9153968" width="4.39042328" height="4.39042328"></rect>
                </g>
            </g>
        </g>
    </g>
</svg>