<?xml version="1.0" encoding="UTF-8" standalone="no"?>
<svg width="580px" height="596px" viewBox="0 0 580 596" version="1.1" xmlns="http://www.w3.org/2000/svg" xmlns:xlink="http://www.w3.org/1999/xlink" xmlns:sketch="http://www.bohemiancoding.com/sketch/ns">
    <!-- Generator: Sketch 3.2.2 (9983) - http://www.bohemiancoding.com/sketch -->
    <title>flatLogo</title>
    <desc>Created with Sketch.</desc>
    <defs></defs>
    <g id="Page-1" stroke="none" stroke-width="1" fill="none" fill-rule="evenodd" sketch:type="MSPage">
        <g id="flatLogo" sketch:type="MSLayerGroup">
            <g id="Page-1" sketch:type="MSShapeGroup">
                <g id="flatLogo">
                    <g id="axe" transform="translate(313.476763, 293.850751) rotate(2.000000) translate(-313.476763, -293.850751) translate(167.976763, 157.850751)" fill="#FFFFFF">
                        <g id="Layer_41" transform="translate(0.906193, 0.759689)">
                            <path d="M288.267689,53.049114 C272.91315,45.4750622 260.67334,34.6627551 260.67334,34.6627551 L227.675408,1.40352754 C224.574162,-1.7225952 222.123503,2.06273168 222.123503,2.06273168 L199.420359,26.4328972 C196.400014,29.477469 199.420359,31.5366324 199.420359,31.5366324 L203.755362,35.9098063 C202.096868,37.6223778 198.237166,42.4474803 193.204383,54.1840324 C186.415351,70.0083298 176.194722,84.5312087 168.495541,94.6061586 C154.67477,112.686701 123.979175,141.266938 123.979175,141.266938 C62.6318076,195.260515 41.620865,222.821365 41.620865,222.821365 C31.629459,236.148162 26.1449726,241.010641 26.1449726,241.010641 L5.51494399,261.94547 C-2.78088942,269.804951 2.87214293,270.715603 2.87214293,270.715603 C2.87214293,270.715603 19.9289967,271.323839 36.0183965,267.779766 C36.0183965,267.779766 41.283773,266.444368 45.3086512,257.966459 L57.0124844,233.783182 C57.0124844,233.783182 64.7588579,214.598303 143.665346,146.027479 C143.665346,146.027479 179.946556,113.376486 198.014685,88.9961275 C198.014685,88.9961275 204.129533,80.0289124 216.224393,66.1584417 L225.076429,56.7087163 C240.484902,68.7850644 249.067264,93.7023014 249.067264,93.7023014 C249.717851,94.3581076 252.013448,93.4474544 252.013448,93.4474544 C272.110872,82.4176779 288.442977,56.7291041 288.442977,56.7291041 C289.730669,54.3573284 288.267689,53.049114 288.267689,53.049114 L288.267689,53.049114 L288.267689,53.049114 Z" id="Shape"></path>
                        </g>
                    </g>
                    <g id="coffee" transform="translate(243.407659, 291.850754) rotate(-46.000000) translate(-243.407659, -291.850754) translate(179.907659, 146.350754)">
                        <path d="M108.242809,290.963643 L23.1321264,290.963643 L14.3250029,134.014185 L117.042602,134.014185 L108.242809,290.963643 L108.242809,290.963643 Z" id="Shape" stroke="#FFFFFF" stroke-width="5"></path>
                        <path d="M126.473621,123.360897 C126.473621,125.48758 124.856979,127.227453 122.878972,127.227453 L4.28468106,127.227453 C2.3079405,127.227453 0.691298922,125.660344 0.691298922,123.743119 C0.691298922,121.825894 2.23439916,119.676279 4.12111497,118.963817 L9.94102465,116.768335 C11.8277404,116.055874 13.3708407,113.524036 13.3708407,111.140501 L13.3708407,108.055206 C13.3708407,105.671671 14.9874823,103.722339 16.9642229,103.722339 L110.199429,103.722339 C112.177438,103.722339 113.79408,105.671671 113.79408,108.055206 L113.79408,111.140501 C113.79408,113.524036 115.357467,115.970256 117.269542,116.575695 L122.998159,118.392013 C124.908966,118.998982 126.473621,121.235744 126.473621,123.360897 L126.473621,123.360897 L126.473621,123.360897 Z" id="Shape" fill="#FFFFFF"></path>
                        <path d="M30.7385192,2.47330387 C25.0863334,12.1863251 21.096305,26.8911636 24.9066121,39.168129 C28.2277365,49.8703404 37.1914758,54.5747268 35.5856807,67.9555488 C34.8274477,74.2790268 31.9519048,78.3152894 30.2397657,83.8391594 C28.5797353,89.1933228 34.0766588,93.8640737 35.7494506,88.4686303 C37.1808414,83.8513905 39.4831899,79.9114478 40.801856,75.077106 C42.9468153,67.2186251 42.5395176,58.7852825 39.8277446,51.3793521 C38.2059979,46.9471078 35.2368723,43.999413 32.8834786,40.4722699 C30.013253,36.1715098 29.3985844,29.9734005 30.1068357,24.3470951 C30.7831838,18.9654116 33.0600098,12.7229646 35.2496336,8.95884398 C37.8710142,4.45474187 33.3822322,-2.07054931 30.7385192,2.47330387 L30.7385192,2.47330387 L30.7385192,2.47330387 Z" id="Shape" fill="#FFFFFF"></path>
                        <path d="M65.9855168,2.47330387 C60.3346635,12.1863251 56.344825,26.8911636 60.1538873,39.168129 C63.4737901,49.8703404 72.4360391,54.5747268 70.831384,67.9555488 C70.0731871,74.2790268 67.1977812,78.3152894 65.486787,83.8391594 C63.8278989,89.1933228 69.3245607,93.8640737 70.9962094,88.4686303 C72.4275321,83.8513905 74.7287075,79.9099189 76.0473108,75.077106 C78.1911047,67.2186251 77.7848898,58.7852825 75.0743092,51.3793521 C73.4526398,46.9471078 70.484719,43.999413 68.1314373,40.4722699 C65.2613483,36.1715098 64.6477725,29.9734005 65.3549266,24.3470951 C66.0312425,18.9654116 68.30796,12.7229646 70.4974796,8.95884398 C73.1166087,4.45474187 68.6280404,-2.07054931 65.9855168,2.47330387 L65.9855168,2.47330387 L65.9855168,2.47330387 Z" id="Shape" fill="#FFFFFF"></path>
                        <path d="M100.902149,2.47330387 C95.2498138,12.1863251 91.2596801,26.8911636 95.0700877,39.168129 C98.3902364,49.8703404 107.355276,54.5747268 105.749439,67.9555488 C104.991185,74.2790268 102.115567,78.3152894 100.403382,83.8391594 C98.7433079,89.1933228 104.240377,93.8640737 105.914276,88.4686303 C107.345705,83.8513905 109.648114,79.9114478 110.966816,75.077106 C113.111831,67.2186251 112.704523,58.7852825 109.993742,51.3793521 C108.370888,46.9471078 105.402748,43.999413 103.048228,40.4722699 C100.177927,36.1715098 99.5643056,29.9734005 100.271512,24.3470951 C100.948942,18.9638827 103.224764,12.7229646 105.415509,8.95884398 C108.034832,4.45627075 103.544868,-2.06902043 100.902149,2.47330387 L100.902149,2.47330387 L100.902149,2.47330387 Z" id="Shape" fill="#FFFFFF"></path>
                    </g>
                    <g id="badge">
                        <path d="M579.20192,342.466207 C581.6501,326.048966 563.84294,308.073793 563.40446,291.097931 C562.98425,274.593793 579.93881,255.737241 576.60758,238.991034 C573.28853,222.244828 550.48757,211.550345 544.58636,196.169655 C538.52072,180.36069 548.08811,156.762069 539.59256,142.591724 C530.94476,128.173103 505.93313,126.1 495.08684,113.605517 C484.14311,100.974483 485.17841,75.4393103 472.35287,65.0241379 C459.46643,54.5593103 435.26477,61.3 420.80102,53.2558621 C406.38599,45.2365517 398.84657,20.8558621 383.177,15.462069 C367.66577,10.1365517 347.19728,24.877931 330.79691,22.3331034 C314.68277,19.8751724 299.38469,-0.42137931 282.73463,0.0193103448 C266.53523,0.44137931 252.27245,21.4455172 235.84163,24.8282759 C219.4169,28.2048276 198.26633,14.5 183.17531,20.5268966 C167.66408,26.7027586 161.29394,51.4558621 147.39656,60.102069 C133.23731,68.9034483 108.76769,63.4413793 96.50852,74.4772414 C84.12755,85.6434483 86.45393,111.104138 76.22882,124.194483 C65.96108,137.315862 41.09561,140.698621 33.20906,155.427586 C25.34078,170.131724 36.03482,193.252414 30.74261,209.191724 C25.51739,225.006897 3.25235,236.818621 0.79199,253.515172 C-1.63792,269.938621 16.14488,287.913793 16.57727,304.883448 C17.00966,321.393793 0.06119,340.256552 3.38024,357.002759 C6.69929,373.748966 29.50634,384.437241 35.40146,399.805517 C41.46101,415.626897 31.91189,439.244138 40.40135,453.395862 C49.03697,467.802069 74.06078,469.9 84.90098,482.394483 C95.8508,495.013103 94.80941,520.548276 107.65322,530.975862 C120.53357,541.453103 144.72914,534.7 159.1868,542.744138 C173.60183,550.744828 181.14734,575.150345 196.80473,580.531724 C212.31596,585.851034 232.79054,571.122069 249.19091,573.648276 C265.29896,576.131034 280.59095,596.408966 297.25319,595.968276 C313.44041,595.558621 327.70319,574.56069 344.1401,571.171724 C360.57092,567.776552 381.70322,581.487586 396.80033,575.473103 C412.31156,569.291034 418.6817,544.544138 432.57908,535.891724 C446.72615,527.071724 471.20795,532.558621 483.46712,521.504138 C495.842,510.356552 493.50953,484.902069 503.74682,471.79931 C514.01456,458.671724 538.89221,455.32 546.76049,440.547586 C554.62268,425.874483 543.94082,402.741379 549.20258,386.789655 C554.47652,370.993103 576.74156,359.168966 579.20192,342.466207 L579.20192,342.466207 L579.20192,342.466207 Z M336.65549,533.371724 C320.9981,536.593103 305.03012,538.21931 289.19612,538.21931 C176.33015,538.21931 78.17153,456.251034 55.7786,343.328966 C29.75603,212.003448 113.39609,83.5889655 242.24222,57.0668966 C257.89961,53.8455172 273.86759,52.2068966 289.70768,52.2068966 C402.56756,52.2068966 500.72009,134.175172 523.11911,247.103448 C549.14168,378.416552 465.48944,506.837241 336.65549,533.371724 L336.65549,533.371724 L336.65549,533.371724 Z" id="ext-circle" fill="#FFFFFF"></path>
                        <ellipse id="int-circle" stroke="#D64541" stroke-width="5" stroke-dasharray="2" opacity="0.702367071" cx="289.400002" cy="295.199997" rx="234.5" ry="239"></ellipse>
                    </g>
                </g>
            </g>
        </g>
    </g>
</svg>