<?xml version="1.0" encoding="UTF-8" standalone="no"?>
<svg width="580px" height="596px" viewBox="0 0 580 596" version="1.1" xmlns="http://www.w3.org/2000/svg" xmlns:xlink="http://www.w3.org/1999/xlink" xmlns:sketch="http://www.bohemiancoding.com/sketch/ns">
    <!-- Generator: Sketch 3.2.2 (9983) - http://www.bohemiancoding.com/sketch -->
    <title>Slice 1</title>
    <desc>Created with Sketch.</desc>
    <defs></defs>
    <g id="Page-1" stroke="none" stroke-width="1" fill="none" fill-rule="evenodd" sketch:type="MSPage" class="badge-color">
        <g id="flatLogo" sketch:type="MSLayerGroup">
            <g id="code-craft" transform="translate(182.000000, 440.000000)" font-size="36" font-family="Ubuntu Mono" fill="#FFFFFF" sketch:type="MSTextLayer" font-weight="normal">
                <text id="CODE-&amp;-CRAFT">
                    <tspan x="0" y="30" fill="#ffffff">CODE &amp; CRAFT</tspan>
                </text>
            </g>
            <g id="axe" transform="translate(309.976763, 270.331241) rotate(2.000000) translate(-309.976763, -270.331241) translate(171.976763, 141.331241)" fill="#fff" sketch:type="MSShapeGroup">
                <g id="Layer_41" transform="translate(0.859482, 0.720587)">
                    <path d="M273.40853,50.3186449 C258.845462,43.134434 247.23657,32.8786427 247.23657,32.8786427 L215.939562,1.33128715 C212.998174,-1.63393221 210.673838,1.95656167 210.673838,1.95656167 L189.140959,25.0723804 C186.276302,27.9602463 189.140959,29.9134234 189.140959,29.9134234 L193.252508,34.0615074 C191.679504,35.6859319 188.018755,40.2626835 183.245394,51.3951484 C176.806312,66.4049599 167.11252,80.1803377 159.810204,89.736724 C146.701844,106.88665 117.588496,133.995846 117.588496,133.995846 C59.4033639,185.210341 39.4754596,211.352618 39.4754596,211.352618 C29.9990745,223.993477 24.7972936,228.605682 24.7972936,228.605682 L5.23066853,248.462983 C-2.6375446,255.917931 2.72409433,256.781712 2.72409433,256.781712 C2.72409433,256.781712 18.9017288,257.358641 34.1617781,253.996984 C34.1617781,253.996984 39.1557435,252.73032 42.9731537,244.688774 L54.0736965,221.750224 C54.0736965,221.750224 61.4207724,203.552802 136.259916,138.511359 C136.259916,138.511359 170.67096,107.540932 187.807742,84.4154445 C187.807742,84.4154445 193.607392,75.9097772 205.078806,62.7532278 L213.474551,53.7898853 C228.088773,65.2446567 236.228745,88.8793888 236.228745,88.8793888 C236.845797,89.5014403 239.023064,88.637659 239.023064,88.637659 C258.084538,78.1755915 273.574782,53.8092237 273.574782,53.8092237 C274.796098,51.5595247 273.40853,50.3186449 273.40853,50.3186449 L273.40853,50.3186449 L273.40853,50.3186449 Z" id="Shape"></path>
                </g>
            </g>
            <g id="coffee" transform="translate(243.407660, 267.850751) rotate(-42.000000) translate(-243.407660, -267.850751) translate(184.907660, 133.350751)" sketch:type="MSShapeGroup">
                <path d="M99.7197532,268.966392 L21.3106991,268.966392 L13.1970499,123.882528 L107.826649,123.882528 L99.7197532,268.966392 L99.7197532,268.966392 Z" id="Shape" stroke="#FFFFFF" stroke-width="5"></path>
                <path d="M116.515068,114.034644 C116.515068,116.000546 115.025721,117.608883 113.203462,117.608883 L3.9473046,117.608883 C2.1262129,117.608883 0.636865936,116.160249 0.636865936,114.387969 C0.636865936,112.615689 2.05846222,110.628588 3.79661773,109.969989 L9.1582668,107.940488 C10.8964223,107.28189 12.3180186,104.941463 12.3180186,102.738126 L12.3180186,99.8860839 C12.3180186,97.6827471 13.8073656,95.8807879 15.6284573,95.8807879 L101.522309,95.8807879 C103.344569,95.8807879 104.833916,97.6827471 104.833916,99.8860839 L104.833916,102.738126 C104.833916,104.941463 106.274202,107.202745 108.03572,107.762412 L113.313265,109.441414 C115.073614,110.002495 116.515068,112.070155 116.515068,114.034644 L116.515068,114.034644 L116.515068,114.034644 Z" id="Shape" fill="#FFFFFF"></path>
                <path d="M28.3181634,2.2863187 C23.1110316,11.2650222 19.4351786,24.8581547 22.9454615,36.2069646 C26.0050801,46.1000741 34.2630131,50.4488024 32.7836586,62.8180159 C32.085129,68.6634303 29.4360068,72.3945459 27.8586818,77.5008037 C26.3293624,82.450185 31.3934573,86.7678207 32.9345332,81.7802802 C34.2532161,77.5121101 36.3742773,73.8700325 37.5891114,69.4011736 C39.5651763,62.1368046 39.1899493,54.3410343 36.6917017,47.4950025 C35.1976516,43.3978419 32.4623154,40.6729969 30.2942283,37.4125107 C27.6500047,33.4368939 27.0837352,27.7073702 27.7362187,22.5064212 C28.3593111,17.5316004 30.4568594,11.761091 32.4740719,8.28154306 C34.8890446,4.11795726 30.75371,-1.91401294 28.3181634,2.2863187 L28.3181634,2.2863187 L28.3181634,2.2863187 Z" id="Shape" fill="#FFFFFF"></path>
                <path d="M60.7898068,2.2863187 C55.5839026,11.2650222 51.9082246,24.8581547 55.4173607,36.2069646 C58.4758539,46.1000741 66.732414,50.4488024 65.2541097,62.8180159 C64.5556133,68.6634303 61.9066173,72.3945459 60.3303471,77.5008037 C58.8020801,82.450185 63.8659339,86.7678207 65.4059567,81.7802802 C66.7245768,77.5121101 68.8445573,73.8686192 70.0593336,69.4011736 C72.0343248,62.1368046 71.6600953,54.3410343 69.1629463,47.4950025 C67.6689674,43.3978419 64.9347411,40.6729969 62.7667572,37.4125107 C60.1226595,33.4368939 59.5573967,27.7073702 60.2088694,22.5064212 C60.8319321,17.5316004 62.9293805,11.761091 64.946497,8.28154306 C67.3593954,4.11795726 63.2242577,-1.91401294 60.7898068,2.2863187 L60.7898068,2.2863187 L60.7898068,2.2863187 Z" id="Shape" fill="#FFFFFF"></path>
                <path d="M92.9570979,2.2863187 C87.7498285,11.2650222 84.0738785,24.8581547 87.584254,36.2069646 C90.6429737,46.1000741 98.9021046,50.4488024 97.4227111,62.8180159 C96.724163,68.6634303 94.0749708,72.3945459 92.4976042,77.5008037 C90.9682443,82.450185 96.032473,86.7678207 97.5745693,81.7802802 C98.893287,77.5121101 101.014404,73.8700325 102.229271,69.4011736 C104.205388,62.1368046 103.830151,54.3410343 101.332817,47.4950025 C99.8377476,43.3978419 97.1033188,40.6729969 94.9341947,37.4125107 C92.2899012,33.4368939 91.7245965,27.7073702 92.3761175,22.5064212 C93.0002061,17.5301871 95.0968301,11.761091 97.1150756,8.28154306 C99.5281526,4.11937056 95.391729,-1.91259964 92.9570979,2.2863187 L92.9570979,2.2863187 L92.9570979,2.2863187 Z" id="Shape" fill="#FFFFFF"></path>
            </g>
            <g id="badge" sketch:type="MSShapeGroup">
                <path d="M579.20192,342.466207 C581.6501,326.048966 563.84294,308.073793 563.40446,291.097931 C562.98425,274.593793 579.93881,255.737241 576.60758,238.991034 C573.28853,222.244828 550.48757,211.550345 544.58636,196.169655 C538.52072,180.36069 548.08811,156.762069 539.59256,142.591724 C530.94476,128.173103 505.93313,126.1 495.08684,113.605517 C484.14311,100.974483 485.17841,75.4393103 472.35287,65.0241379 C459.46643,54.5593103 435.26477,61.3 420.80102,53.2558621 C406.38599,45.2365517 398.84657,20.8558621 383.177,15.462069 C367.66577,10.1365517 347.19728,24.877931 330.79691,22.3331034 C314.68277,19.8751724 299.38469,-0.42137931 282.73463,0.0193103448 C266.53523,0.44137931 252.27245,21.4455172 235.84163,24.8282759 C219.4169,28.2048276 198.26633,14.5 183.17531,20.5268966 C167.66408,26.7027586 161.29394,51.4558621 147.39656,60.102069 C133.23731,68.9034483 108.76769,63.4413793 96.50852,74.4772414 C84.12755,85.6434483 86.45393,111.104138 76.22882,124.194483 C65.96108,137.315862 41.09561,140.698621 33.20906,155.427586 C25.34078,170.131724 36.03482,193.252414 30.74261,209.191724 C25.51739,225.006897 3.25235,236.818621 0.79199,253.515172 C-1.63792,269.938621 16.14488,287.913793 16.57727,304.883448 C17.00966,321.393793 0.06119,340.256552 3.38024,357.002759 C6.69929,373.748966 29.50634,384.437241 35.40146,399.805517 C41.46101,415.626897 31.91189,439.244138 40.40135,453.395862 C49.03697,467.802069 74.06078,469.9 84.90098,482.394483 C95.8508,495.013103 94.80941,520.548276 107.65322,530.975862 C120.53357,541.453103 144.72914,534.7 159.1868,542.744138 C173.60183,550.744828 181.14734,575.150345 196.80473,580.531724 C212.31596,585.851034 232.79054,571.122069 249.19091,573.648276 C265.29896,576.131034 280.59095,596.408966 297.25319,595.968276 C313.44041,595.558621 327.70319,574.56069 344.1401,571.171724 C360.57092,567.776552 381.70322,581.487586 396.80033,575.473103 C412.31156,569.291034 418.6817,544.544138 432.57908,535.891724 C446.72615,527.071724 471.20795,532.558621 483.46712,521.504138 C495.842,510.356552 493.50953,484.902069 503.74682,471.79931 C514.01456,458.671724 538.89221,455.32 546.76049,440.547586 C554.62268,425.874483 543.94082,402.741379 549.20258,386.789655 C554.47652,370.993103 576.74156,359.168966 579.20192,342.466207 L579.20192,342.466207 L579.20192,342.466207 Z M336.65549,533.371724 C320.9981,536.593103 305.03012,538.21931 289.19612,538.21931 C176.33015,538.21931 78.17153,456.251034 55.7786,343.328966 C29.75603,212.003448 113.39609,83.5889655 242.24222,57.0668966 C257.89961,53.8455172 273.86759,52.2068966 289.70768,52.2068966 C402.56756,52.2068966 500.72009,134.175172 523.11911,247.103448 C549.14168,378.416552 465.48944,506.837241 336.65549,533.371724 L336.65549,533.371724 L336.65549,533.371724 Z" id="ext-circle" fill="#FFFFFF"></path>
                <ellipse id="int-circle" stroke="#D64541" stroke-width="5" stroke-dasharray="2" opacity="0.702367071" cx="289.400002" cy="295.199997" rx="234.5" ry="239"></ellipse>
            </g>
        </g>
    </g>
</svg>