<?xml version="1.0" encoding="UTF-8" standalone="no"?>
<svg width="130px" height="130px" viewBox="0 0 130 130" version="1.1" xmlns="http://www.w3.org/2000/svg" xmlns:xlink="http://www.w3.org/1999/xlink" xmlns:sketch="http://www.bohemiancoding.com/sketch/ns">
    <!-- Generator: Sketch 3.4 (15575) - http://www.bohemiancoding.com/sketch -->
    <title>inf-managment</title>
    <desc>Created with Sketch.</desc>
    <defs></defs>
    <g id="Page-1" stroke="none" stroke-width="1" fill="none" fill-rule="evenodd" sketch:type="MSPage">
        <g id="Artboard-1" sketch:type="MSArtboardGroup" transform="translate(-70.000000, -30.000000)" fill="#808080">
            <g id="inf-managment" sketch:type="MSLayerGroup" transform="translate(69.000000, 30.000000)">
                <g id="Shape-+-Group" transform="translate(1.000000, 0.000000)" sketch:type="MSShapeGroup">
                    <path d="M127.837702,99.6291416 L118.213311,99.6291416 L105.829829,80.1364834 L114.863911,80.1364834 C116.0575,80.1364834 117.02621,79.1683481 117.02621,77.9706325 L117.02621,51.9804217 C117.02621,50.7827061 116.0575,49.8145708 114.863911,49.8145708 L102.530161,49.8145708 L72.454753,30.3219127 L78.1048387,30.3219127 C79.2984274,30.3219127 80.2671371,29.3537773 80.2671371,28.1560617 L80.2671371,2.1658509 C80.2671371,0.968135354 79.2984274,0 78.1048387,0 L52.1572581,0 C50.9636694,0 49.9949597,0.968135354 49.9949597,2.1658509 L49.9949597,28.1560617 C49.9949597,29.3537773 50.9636694,30.3219127 52.1572581,30.3219127 L57.8073438,30.3219127 L27.7319355,49.8145708 L15.3981855,49.8145708 C14.2045968,49.8145708 13.2358871,50.7827061 13.2358871,51.9804217 L13.2358871,77.9706325 C13.2358871,79.1683481 14.2045968,80.1364834 15.3981855,80.1364834 L24.4322681,80.1364834 L12.0487853,99.6291416 L2.42439516,99.6291416 C1.23080645,99.6291416 0.262096774,100.597277 0.262096774,101.794992 L0.262096774,127.785203 C0.262096774,128.982919 1.23080645,129.951054 2.42439516,129.951054 L24.047379,129.951054 C25.2409677,129.951054 26.2096774,128.982919 26.2096774,127.785203 L26.2096774,101.794992 C26.2096774,100.597277 25.2409677,99.6291416 24.047379,99.6291416 L17.1755948,99.6291416 L28.3719758,82.0056128 L39.5683569,99.6291416 L32.6965726,99.6291416 C31.5029839,99.6291416 30.5342742,100.597277 30.5342742,101.794992 L30.5342742,127.785203 C30.5342742,128.982919 31.5029839,129.951054 32.6965726,129.951054 L54.3195565,129.951054 C55.5131452,129.951054 56.4818548,128.982919 56.4818548,127.785203 L56.4818548,101.794992 C56.4818548,100.597277 55.5131452,99.6291416 54.3195565,99.6291416 L44.6951663,99.6291416 L32.3116835,80.1364834 L41.3457661,80.1364834 C42.5393548,80.1364834 43.5080645,79.1683481 43.5080645,77.9706325 L43.5080645,51.9804217 C43.5080645,50.7827061 42.5393548,49.8145708 41.3457661,49.8145708 L35.6956804,49.8145708 L62.96875,32.1368957 L62.96875,49.8145708 L52.1572581,49.8145708 C50.9636694,49.8145708 49.9949597,50.7827061 49.9949597,51.9804217 L49.9949597,77.9706325 C49.9949597,79.1683481 50.9636694,80.1364834 52.1572581,80.1364834 L78.1048387,80.1364834 C79.2984274,80.1364834 80.2671371,79.1683481 80.2671371,77.9706325 L80.2671371,51.9804217 C80.2671371,50.7827061 79.2984274,49.8145708 78.1048387,49.8145708 L67.2933468,49.8145708 L67.2933468,32.1390616 L94.5664163,49.8145708 L88.9163306,49.8145708 C87.7227419,49.8145708 86.7540323,50.7827061 86.7540323,51.9804217 L86.7540323,77.9706325 C86.7540323,79.1683481 87.7227419,80.1364834 88.9163306,80.1364834 L97.9504133,80.1364834 L85.5669304,99.6291416 L75.9425403,99.6291416 C74.7489516,99.6291416 73.7802419,100.597277 73.7802419,101.794992 L73.7802419,127.785203 C73.7802419,128.982919 74.7489516,129.951054 75.9425403,129.951054 L97.5655242,129.951054 C98.7591129,129.951054 99.7278226,128.982919 99.7278226,127.785203 L99.7278226,101.794992 C99.7278226,100.597277 98.7591129,99.6291416 97.5655242,99.6291416 L90.6937399,99.6291416 L101.890121,82.0034469 L113.086502,99.6291416 L106.214718,99.6291416 C105.021129,99.6291416 104.052419,100.597277 104.052419,101.794992 L104.052419,127.785203 C104.052419,128.982919 105.021129,129.951054 106.214718,129.951054 L127.837702,129.951054 C129.03129,129.951054 130,128.982919 130,127.785203 L130,101.794992 C130,100.597277 129.03129,99.6291416 127.837702,99.6291416 L127.837702,99.6291416 Z M52.1572581,125.619352 L34.858871,125.619352 L34.858871,103.960843 L52.1572581,103.960843 L52.1572581,125.619352 L52.1572581,125.619352 Z M21.8850806,125.619352 L4.58669355,125.619352 L4.58669355,103.960843 L21.8850806,103.960843 L21.8850806,125.619352 L21.8850806,125.619352 Z M39.1834677,75.8047816 L17.5604839,75.8047816 L17.5604839,54.1462726 L39.1834677,54.1462726 L39.1834677,75.8047816 L39.1834677,75.8047816 Z M75.9425403,75.8047816 L54.3195565,75.8047816 L54.3195565,54.1462726 L75.9425403,54.1462726 L75.9425403,75.8047816 L75.9425403,75.8047816 Z M54.3195565,4.33170181 L75.9425403,4.33170181 L75.9425403,25.9902108 L54.3195565,25.9902108 L54.3195565,4.33170181 L54.3195565,4.33170181 Z M91.078629,54.1462726 L112.701613,54.1462726 L112.701613,75.8047816 L91.078629,75.8047816 L91.078629,54.1462726 L91.078629,54.1462726 Z M95.4032258,125.619352 L78.1048387,125.619352 L78.1048387,103.960843 L95.4032258,103.960843 L95.4032258,125.619352 L95.4032258,125.619352 Z M125.675403,125.619352 L108.377016,125.619352 L108.377016,103.960843 L125.675403,103.960843 L125.675403,125.619352 L125.675403,125.619352 Z" id="Shape"></path>
                    <g id="Group" transform="translate(8.125000, 8.125000)" fill-opacity="0.667459239">
                        <rect id="Rectangle-path" x="50.5191532" y="0.538403614" width="12.9737903" height="4.33170181"></rect>
                        <rect id="Rectangle-path" x="50.5191532" y="9.20180723" width="12.9737903" height="4.33170181"></rect>
                        <rect id="Rectangle-path" x="87.2782258" y="50.3529744" width="12.9737903" height="4.33170181"></rect>
                        <rect id="Rectangle-path" x="87.2782258" y="59.016378" width="12.9737903" height="4.33170181"></rect>
                        <rect id="Rectangle-path" x="50.5191532" y="50.3529744" width="12.9737903" height="4.33170181"></rect>
                        <rect id="Rectangle-path" x="50.5191532" y="59.016378" width="12.9737903" height="4.33170181"></rect>
                        <rect id="Rectangle-path" x="13.7600806" y="50.3529744" width="12.9737903" height="4.33170181"></rect>
                        <rect id="Rectangle-path" x="13.7600806" y="59.016378" width="12.9737903" height="4.33170181"></rect>
                        <rect id="Rectangle-path" x="0.786290323" y="100.167545" width="8.64919355" height="4.33170181"></rect>
                        <rect id="Rectangle-path" x="0.786290323" y="108.830949" width="8.64919355" height="4.33170181"></rect>
                        <rect id="Rectangle-path" x="31.0584677" y="100.167545" width="8.64919355" height="4.33170181"></rect>
                        <rect id="Rectangle-path" x="31.0584677" y="108.830949" width="8.64919355" height="4.33170181"></rect>
                        <rect id="Rectangle-path" x="74.3044355" y="100.167545" width="8.64919355" height="4.33170181"></rect>
                        <rect id="Rectangle-path" x="74.3044355" y="108.830949" width="8.64919355" height="4.33170181"></rect>
                        <rect id="Rectangle-path" x="104.576613" y="100.167545" width="8.64919355" height="4.33170181"></rect>
                        <rect id="Rectangle-path" x="104.576613" y="108.830949" width="8.64919355" height="4.33170181"></rect>
                    </g>
                </g>
            </g>
        </g>
    </g>
</svg>