<?xml version="1.0" encoding="UTF-8" standalone="no"?>
<svg width="150px" height="118px" viewBox="0 0 150 118" version="1.1" xmlns="http://www.w3.org/2000/svg" xmlns:xlink="http://www.w3.org/1999/xlink" xmlns:sketch="http://www.bohemiancoding.com/sketch/ns">
    <!-- Generator: Sketch 3.4 (15575) - http://www.bohemiancoding.com/sketch -->
    <title>pragmatic-design</title>
    <desc>Created with Sketch.</desc>
    <defs></defs>
    <g id="Page-1" stroke="none" stroke-width="1" fill="none" fill-rule="evenodd" sketch:type="MSPage">
        <g id="Artboard-1" sketch:type="MSArtboardGroup" transform="translate(-60.000000, -36.000000)" fill="#808080">
            <g id="pragmatic-design" sketch:type="MSLayerGroup" transform="translate(7.000000, 36.000000)">
                <path d="M61.7209302,2.06057393e-13 C56.9197093,2.06057393e-13 53,4.00768247 53,8.91666103 L53,108.783336 C53,113.692314 56.9197093,117.699997 61.7209302,117.699997 L194.27907,117.699997 C199.080291,117.699997 203,113.692314 203,108.783336 L203,8.91666103 C203,4.00768247 199.080291,2.06057393e-13 194.27907,2.06057393e-13 L61.7209302,2.06057393e-13 L61.7209302,2.06057393e-13 Z M61.7209302,3.56666441 L101.019535,3.56666441 L117.480465,24.9667222 L56.4883721,24.9667222 L56.4883721,8.91666103 C56.4883721,5.92191126 58.7919186,3.56666441 61.7209302,3.56666441 L61.7209302,3.56666441 Z M105.434593,3.56666441 L194.27907,3.56666441 C197.208081,3.56666441 199.511628,5.92191126 199.511628,8.91666103 L199.511628,24.9667222 L121.895349,24.9667222 L105.434593,3.56666441 L105.434593,3.56666441 Z M66.9534884,10.6999932 C65.0268605,10.6999932 63.4651163,12.2967889 63.4651163,14.266729 C63.4651163,16.2365977 65.0268605,17.8333934 66.9534884,17.8333934 C68.8801163,17.8333934 70.4418605,16.2365977 70.4418605,14.266729 C70.4418605,12.2967889 68.8801163,10.6999932 66.9534884,10.6999932 L66.9534884,10.6999932 Z M79.1627907,10.6999932 C77.2361628,10.6999932 75.6744186,12.2967889 75.6744186,14.266729 C75.6744186,16.2365977 77.2361628,17.8333934 79.1627907,17.8333934 C81.0894186,17.8333934 82.6511628,16.2365977 82.6511628,14.266729 C82.6511628,12.2967889 81.0894186,10.6999932 79.1627907,10.6999932 L79.1627907,10.6999932 Z M91.372093,10.6999932 C89.4454651,10.6999932 87.8837209,12.2967889 87.8837209,14.266729 C87.8837209,16.2365977 89.4454651,17.8333934 91.372093,17.8333934 C93.2987209,17.8333934 94.8604651,16.2365977 94.8604651,14.266729 C94.8604651,12.2967889 93.2987209,10.6999932 91.372093,10.6999932 L91.372093,10.6999932 Z M56.4883721,28.5333866 L199.511628,28.5333866 L199.511628,108.783336 C199.511628,111.778086 197.208081,114.133333 194.27907,114.133333 L61.7209302,114.133333 C58.7919186,114.133333 56.4883721,111.778086 56.4883721,108.783336 L56.4883721,28.5333866 L56.4883721,28.5333866 Z M140.209302,39.2333799 C137.939593,39.2333799 136.028488,40.7344106 135.303779,42.8000443 L122.767442,42.8000443 L122.767442,69.5500274 L113.719477,69.5500274 C112.994767,67.4843937 111.083663,65.983363 108.813953,65.983363 C105.924012,65.983363 103.581395,68.3785565 103.581395,71.3333596 C103.581395,74.2881627 105.924012,76.6833562 108.813953,76.6833562 C111.083663,76.6833562 112.994767,75.1823255 113.719477,73.1166918 L122.767442,73.1166918 L122.767442,99.8666749 L135.303779,99.8666749 C136.028488,101.932309 137.939593,103.433339 140.209302,103.433339 C143.099244,103.433339 145.44186,101.038146 145.44186,98.0833427 C145.44186,95.1285395 143.099244,92.7333461 140.209302,92.7333461 C137.939593,92.7333461 136.028488,94.2343768 135.303779,96.3000105 L126.255814,96.3000105 L126.255814,73.1166918 L135.303779,73.1166918 C136.028488,75.1823255 137.939593,76.6833562 140.209302,76.6833562 C143.099244,76.6833562 145.44186,74.2881627 145.44186,71.3333596 C145.44186,68.3785565 143.099244,65.983363 140.209302,65.983363 C137.939593,65.983363 136.028488,67.4843937 135.303779,69.5500274 L126.255814,69.5500274 L126.255814,46.3667087 L135.303779,46.3667087 C136.028488,48.4323424 137.939593,49.9333731 140.209302,49.9333731 C143.099244,49.9333731 145.44186,47.5381796 145.44186,44.5833765 C145.44186,41.6285734 143.099244,39.2333799 140.209302,39.2333799 L140.209302,39.2333799 Z" id="Shape" sketch:type="MSShapeGroup"></path>
            </g>
        </g>
    </g>
</svg>