<?xml version="1.0" encoding="UTF-8" standalone="no"?>
<svg width="151px" height="118px" viewBox="0 0 151 118" version="1.1" xmlns="http://www.w3.org/2000/svg" xmlns:xlink="http://www.w3.org/1999/xlink" xmlns:sketch="http://www.bohemiancoding.com/sketch/ns">
    <!-- Generator: Sketch 3.4 (15575) - http://www.bohemiancoding.com/sketch -->
    <title>responsive</title>
    <desc>Created with Sketch.</desc>
    <defs></defs>
    <g id="Page-1" stroke="none" stroke-width="1" fill="none" fill-rule="evenodd" sketch:type="MSPage">
        <g id="Artboard-1" sketch:type="MSArtboardGroup" transform="translate(-59.000000, -36.000000)" fill="#808080">
            <g id="responsive" sketch:type="MSLayerGroup" transform="translate(17.000000, 18.000000)">
                <g id="Group" transform="translate(42.000000, 18.000000)" sketch:type="MSShapeGroup">
                    <path d="M74.8981552,84.2063868 L64.6381339,84.2063868 C63.5048433,84.2063868 62.5861297,85.1259107 62.5861297,86.2602011 C62.5861297,87.3944914 63.5048433,88.3140154 64.6381339,88.3140154 L74.8981552,88.3140154 C76.0314458,88.3140154 76.9501594,87.3944914 76.9501594,86.2602011 C76.9501594,85.1259107 76.0314458,84.2063868 74.8981552,84.2063868 L74.8981552,84.2063868 Z" id="Shape"></path>
                    <path d="M144.502139,68.2277114 L144.502139,42.3907274 C144.4949,40.2651901 143.393579,38.2934828 141.588293,37.174039 L141.588293,6.16144293 C141.588293,2.75857196 138.832153,2.08365752e-16 135.432281,0 L6.15601275,0 C2.75614079,-2.08365752e-16 4.16364232e-16,2.75857196 0,6.16144293 L0,94.4754583 C4.16364232e-16,97.8783293 2.75614079,100.636901 6.15601275,100.636901 L53.3521105,100.636901 L53.3521105,112.959787 L40.0140829,112.959787 C38.8807922,112.959787 37.9620787,113.879311 37.9620787,115.013601 C37.9620787,116.147892 38.8807922,117.067416 40.0140829,117.067416 L144.071218,117.067416 C147.47109,117.067416 150.227231,114.308844 150.227231,110.905973 L150.227231,74.3480781 C150.21365,71.1225826 147.716917,68.4534695 144.502139,68.2277114 L144.502139,68.2277114 Z M6.15601275,4.10762862 L135.432281,4.10762862 C136.565571,4.10762862 137.484285,5.02715261 137.484285,6.16144293 L137.484285,36.2292844 L90.2881871,36.2292844 C86.8883151,36.2292844 84.1321743,38.9878564 84.1321743,42.3907274 L84.1321743,72.910408 L4.1040085,72.910408 L4.1040085,6.16144293 C4.1040085,5.02715261 5.0227221,4.10762862 6.15601275,4.10762862 L6.15601275,4.10762862 Z M4.1040085,94.4754583 L4.1040085,77.0180367 L84.1321743,77.0180367 L84.1321743,96.5292726 L6.15601275,96.5292726 C5.0227221,96.5292726 4.1040085,95.6097486 4.1040085,94.4754583 L4.1040085,94.4754583 Z M57.456119,112.959787 L57.456119,100.636901 L84.1321743,100.636901 L84.1321743,112.959787 L57.456119,112.959787 Z M90.2881871,112.959787 C89.1548964,112.959787 88.2361828,112.040263 88.2361828,110.905973 L88.2361828,42.3907274 C88.2361828,41.2564371 89.1548964,40.3369131 90.2881871,40.3369131 L138.305087,40.3369131 C139.438377,40.3369131 140.357091,41.2564371 140.357091,42.3907274 L140.357091,68.1866351 L128.250266,68.1866351 C124.850394,68.1866351 122.094253,70.9452071 122.094253,74.3480781 L122.094253,110.905973 C122.099803,111.606618 122.224714,112.301182 122.463614,112.959787 L90.2881871,112.959787 L90.2881871,112.959787 Z M146.082183,110.905973 C146.082183,112.040263 145.163469,112.959787 144.030178,112.959787 L128.250266,112.959787 C127.116975,112.959787 126.198261,112.040263 126.198261,110.905973 L126.198261,74.3480781 C126.198261,73.2137877 127.116975,72.2942637 128.250266,72.2942637 L144.071218,72.2942637 C145.204509,72.2942637 146.123223,73.2137877 146.123223,74.3480781 L146.082183,110.905973 Z" id="Shape"></path>
                    <path d="M136.971284,107.537717 L135.432281,107.537717 C134.29899,107.537717 133.380276,108.457241 133.380276,109.591532 C133.380276,110.725822 134.29899,111.645346 135.432281,111.645346 L137.073884,111.645346 C138.207175,111.645346 139.125888,110.725822 139.125888,109.591532 C139.125888,108.457241 138.207175,107.537717 137.073884,107.537717 L136.971284,107.537717 Z" id="Shape"></path>
                    <path d="M112.696073,110.618439 L114.337677,110.618439 C115.470968,110.618439 116.389681,109.698915 116.389681,108.564624 C116.389681,107.430334 115.470968,106.51081 114.337677,106.51081 L112.696073,106.51081 C111.562783,106.51081 110.644069,107.430334 110.644069,108.564624 C110.644069,109.698915 111.562783,110.618439 112.696073,110.618439 L112.696073,110.618439 Z" id="Shape"></path>
                </g>
            </g>
        </g>
    </g>
</svg>