<?xml version="1.0" encoding="UTF-8" standalone="no"?>
<svg width="140px" height="118px" viewBox="0 0 140 118" version="1.1" xmlns="http://www.w3.org/2000/svg" xmlns:xlink="http://www.w3.org/1999/xlink" xmlns:sketch="http://www.bohemiancoding.com/sketch/ns">
    <!-- Generator: Sketch 3.4 (15575) - http://www.bohemiancoding.com/sketch -->
    <title>server</title>
    <desc>Created with Sketch.</desc>
    <defs></defs>
    <g id="Page-1" stroke="none" stroke-width="1" fill="none" fill-rule="evenodd" sketch:type="MSPage">
        <g id="Artboard-1" sketch:type="MSArtboardGroup" transform="translate(-65.000000, -36.000000)" fill="#808080">
            <g id="server" sketch:type="MSLayerGroup" transform="translate(65.000000, 36.000000)">
                <path d="M122.179393,93.9128585 L108.277819,93.9128585 C107.351047,93.9128585 106.733199,94.5307062 106.733199,95.4574778 L106.733199,102.408265 C106.733199,103.335037 107.351047,103.952884 108.277819,103.952884 L122.179393,103.952884 C123.106165,103.952884 123.724013,103.335037 123.724013,102.408265 L123.724013,95.4574778 C123.724013,94.5307062 123.106165,93.9128585 122.179393,93.9128585 L122.179393,93.9128585 Z M120.634774,100.863646 L109.822438,100.863646 L109.822438,97.0020972 L120.634774,97.0020972 L120.634774,100.863646 L120.634774,100.863646 Z M35.06286,52.9804448 C31.8191593,52.9804448 29.1933063,55.6062978 29.1933063,58.8499985 C29.1933063,62.0936992 31.8191593,64.7195521 35.06286,64.7195521 C38.3065607,64.7195521 40.9324136,62.0936992 40.9324136,58.8499985 C40.9324136,55.6062978 38.3065607,52.9804448 35.06286,52.9804448 L35.06286,52.9804448 Z M35.06286,61.6303134 C33.5182406,61.6303134 32.2825451,60.3946179 32.2825451,58.8499985 C32.2825451,57.3053791 33.5182406,56.0696836 35.06286,56.0696836 C36.6074794,56.0696836 37.8431749,57.3053791 37.8431749,58.8499985 C37.8431749,60.3946179 36.6074794,61.6303134 35.06286,61.6303134 L35.06286,61.6303134 Z M122.179393,80.165746 L16.8363513,80.165746 C7.56863497,80.165746 0,87.7343809 0,97.0020972 L0,100.863646 C0,110.131362 7.56863497,117.699997 16.8363513,117.699997 L122.333855,117.699997 C131.601571,117.699997 139.170206,110.131362 139.170206,100.863646 L139.170206,97.0020972 C139.015744,87.7343809 131.447109,80.165746 122.179393,80.165746 L122.179393,80.165746 Z M135.926506,100.863646 C135.926506,108.432281 129.748028,114.610758 122.179393,114.610758 L16.8363513,114.610758 C9.2677163,114.610758 3.08923877,108.432281 3.08923877,100.863646 L3.08923877,97.0020972 C3.08923877,89.4334622 9.2677163,83.2549847 16.8363513,83.2549847 L122.333855,83.2549847 C129.90249,83.2549847 136.080968,89.4334622 136.080968,97.0020972 L136.080968,100.863646 L135.926506,100.863646 Z M21.0068236,52.9804448 C17.7631229,52.9804448 15.1372699,55.6062978 15.1372699,58.8499985 C15.1372699,62.0936992 17.7631229,64.7195521 21.0068236,64.7195521 C24.2505243,64.7195521 26.8763773,62.0936992 26.8763773,58.8499985 C26.8763773,55.6062978 24.4049862,52.9804448 21.0068236,52.9804448 L21.0068236,52.9804448 Z M21.0068236,61.6303134 C19.4622042,61.6303134 18.2265087,60.3946179 18.2265087,58.8499985 C18.2265087,57.3053791 19.4622042,56.0696836 21.0068236,56.0696836 C22.551443,56.0696836 23.7871385,57.3053791 23.7871385,58.8499985 C23.7871385,60.3946179 22.7059049,61.6303134 21.0068236,61.6303134 L21.0068236,61.6303134 Z M21.0068236,92.9860868 C17.7631229,92.9860868 15.1372699,95.6119398 15.1372699,98.8556405 C15.1372699,102.099341 17.7631229,104.725194 21.0068236,104.725194 C24.2505243,104.725194 26.8763773,102.099341 26.8763773,98.8556405 C26.8763773,95.6119398 24.4049862,92.9860868 21.0068236,92.9860868 L21.0068236,92.9860868 Z M21.0068236,101.790417 C19.4622042,101.790417 18.2265087,100.554722 18.2265087,99.0101024 C18.2265087,97.465483 19.4622042,96.2297875 21.0068236,96.2297875 C22.551443,96.2297875 23.7871385,97.465483 23.7871385,99.0101024 C23.7871385,100.554722 22.7059049,101.790417 21.0068236,101.790417 L21.0068236,101.790417 Z M35.06286,92.9860868 C31.8191593,92.9860868 29.1933063,95.6119398 29.1933063,98.8556405 C29.1933063,102.099341 31.8191593,104.725194 35.06286,104.725194 C38.3065607,104.725194 40.9324136,102.099341 40.9324136,98.8556405 C40.9324136,95.6119398 38.3065607,92.9860868 35.06286,92.9860868 L35.06286,92.9860868 Z M35.06286,101.790417 C33.5182406,101.790417 32.2825451,100.554722 32.2825451,99.0101024 C32.2825451,97.465483 33.5182406,96.2297875 35.06286,96.2297875 C36.6074794,96.2297875 37.8431749,97.465483 37.8431749,99.0101024 C37.8431749,100.554722 36.6074794,101.790417 35.06286,101.790417 L35.06286,101.790417 Z M48.9644344,92.9860868 C45.7207337,92.9860868 43.0948808,95.6119398 43.0948808,98.8556405 C43.0948808,102.099341 45.7207337,104.725194 48.9644344,104.725194 C52.2081351,104.725194 54.8339881,102.099341 54.8339881,98.8556405 C54.8339881,95.6119398 52.2081351,92.9860868 48.9644344,92.9860868 L48.9644344,92.9860868 Z M48.9644344,101.790417 C47.419815,101.790417 46.1841195,100.554722 46.1841195,99.0101024 C46.1841195,97.465483 47.419815,96.2297875 48.9644344,96.2297875 C50.5090538,96.2297875 51.7447493,97.465483 51.7447493,99.0101024 C51.7447493,100.554722 50.5090538,101.790417 48.9644344,101.790417 L48.9644344,101.790417 Z M21.0068236,12.8203409 C17.7631229,12.8203409 15.1372699,15.4461938 15.1372699,18.6898945 C15.1372699,21.9335952 17.7631229,24.5594482 21.0068236,24.5594482 C24.2505243,24.5594482 26.8763773,21.9335952 26.8763773,18.6898945 C26.8763773,15.4461938 24.4049862,12.8203409 21.0068236,12.8203409 L21.0068236,12.8203409 Z M21.0068236,21.6246714 C19.4622042,21.6246714 18.2265087,20.3889758 18.2265087,18.8443565 C18.2265087,17.2997371 19.4622042,16.0640416 21.0068236,16.0640416 C22.551443,16.0640416 23.7871385,17.2997371 23.7871385,18.8443565 C23.7871385,20.3889758 22.7059049,21.6246714 21.0068236,21.6246714 L21.0068236,21.6246714 Z M35.06286,12.8203409 C31.8191593,12.8203409 29.1933063,15.4461938 29.1933063,18.6898945 C29.1933063,21.9335952 31.8191593,24.5594482 35.06286,24.5594482 C38.3065607,24.5594482 40.9324136,21.9335952 40.9324136,18.6898945 C40.9324136,15.4461938 38.3065607,12.8203409 35.06286,12.8203409 L35.06286,12.8203409 Z M35.06286,21.6246714 C33.5182406,21.6246714 32.2825451,20.3889758 32.2825451,18.8443565 C32.2825451,17.2997371 33.5182406,16.0640416 35.06286,16.0640416 C36.6074794,16.0640416 37.8431749,17.2997371 37.8431749,18.8443565 C37.8431749,20.3889758 36.6074794,21.6246714 35.06286,21.6246714 L35.06286,21.6246714 Z M48.9644344,52.9804448 C45.7207337,52.9804448 43.0948808,55.6062978 43.0948808,58.8499985 C43.0948808,62.0936992 45.7207337,64.7195521 48.9644344,64.7195521 C52.2081351,64.7195521 54.8339881,62.0936992 54.8339881,58.8499985 C54.8339881,55.6062978 52.2081351,52.9804448 48.9644344,52.9804448 L48.9644344,52.9804448 Z M48.9644344,61.6303134 C47.419815,61.6303134 46.1841195,60.3946179 46.1841195,58.8499985 C46.1841195,57.3053791 47.419815,56.0696836 48.9644344,56.0696836 C50.5090538,56.0696836 51.7447493,57.3053791 51.7447493,58.8499985 C51.7447493,60.3946179 50.5090538,61.6303134 48.9644344,61.6303134 L48.9644344,61.6303134 Z M122.179393,0 L16.8363513,0 C7.56863497,0 0,7.56863497 0,16.8363513 L0,20.6978997 C0,29.965616 7.56863497,37.534251 16.8363513,37.534251 L122.333855,37.534251 C131.601571,37.534251 139.170206,29.965616 139.170206,20.6978997 L139.170206,16.8363513 C139.015744,7.56863497 131.447109,0 122.179393,0 L122.179393,0 Z M135.926506,20.6978997 C135.926506,28.2665347 129.748028,34.4450122 122.179393,34.4450122 L16.8363513,34.4450122 C9.2677163,34.4450122 3.08923877,28.2665347 3.08923877,20.6978997 L3.08923877,16.8363513 C3.08923877,9.2677163 9.2677163,3.08923877 16.8363513,3.08923877 L122.333855,3.08923877 C129.90249,3.08923877 136.080968,9.2677163 136.080968,16.8363513 L136.080968,20.6978997 L135.926506,20.6978997 Z M122.179393,13.7471125 L108.277819,13.7471125 C107.351047,13.7471125 106.733199,14.3649603 106.733199,15.2917319 L106.733199,22.2425191 C106.733199,23.1692907 107.351047,23.7871385 108.277819,23.7871385 L122.179393,23.7871385 C123.106165,23.7871385 123.724013,23.1692907 123.724013,22.2425191 L123.724013,15.2917319 C123.724013,14.3649603 123.106165,13.7471125 122.179393,13.7471125 L122.179393,13.7471125 Z M120.634774,20.6978997 L109.822438,20.6978997 L109.822438,16.8363513 L120.634774,16.8363513 L120.634774,20.6978997 L120.634774,20.6978997 Z M48.9644344,12.8203409 C45.7207337,12.8203409 43.0948808,15.4461938 43.0948808,18.6898945 C43.0948808,21.9335952 45.7207337,24.5594482 48.9644344,24.5594482 C52.2081351,24.5594482 54.8339881,21.9335952 54.8339881,18.6898945 C54.8339881,15.4461938 52.2081351,12.8203409 48.9644344,12.8203409 L48.9644344,12.8203409 Z M48.9644344,21.6246714 C47.419815,21.6246714 46.1841195,20.3889758 46.1841195,18.8443565 C46.1841195,17.2997371 47.419815,16.0640416 48.9644344,16.0640416 C50.5090538,16.0640416 51.7447493,17.2997371 51.7447493,18.8443565 C51.7447493,20.3889758 50.5090538,21.6246714 48.9644344,21.6246714 L48.9644344,21.6246714 Z M122.179393,53.7527545 L108.277819,53.7527545 C107.351047,53.7527545 106.733199,54.3706023 106.733199,55.2973739 L106.733199,62.2481611 C106.733199,63.1749327 107.351047,63.7927805 108.277819,63.7927805 L122.179393,63.7927805 C123.106165,63.7927805 123.724013,63.1749327 123.724013,62.2481611 L123.724013,55.2973739 C123.724013,54.5250642 123.106165,53.7527545 122.179393,53.7527545 L122.179393,53.7527545 Z M120.634774,60.7035417 L109.822438,60.7035417 L109.822438,56.8419933 L120.634774,56.8419933 L120.634774,60.7035417 L120.634774,60.7035417 Z M122.179393,40.1601039 L16.8363513,40.1601039 C7.56863497,40.1601039 0,47.7287389 0,56.8419933 L0,60.7035417 C0,69.971258 7.56863497,77.539893 16.8363513,77.539893 L122.333855,77.539893 C131.601571,77.539893 139.170206,69.971258 139.170206,60.7035417 L139.170206,56.8419933 C139.015744,47.7287389 131.447109,40.1601039 122.179393,40.1601039 L122.179393,40.1601039 Z M135.926506,60.8580037 C135.926506,68.4266386 129.748028,74.6051162 122.179393,74.6051162 L16.8363513,74.6051162 C9.2677163,74.6051162 3.08923877,68.4266386 3.08923877,60.8580037 L3.08923877,56.9964552 C3.08923877,49.4278202 9.2677163,43.2493427 16.8363513,43.2493427 L122.333855,43.2493427 C129.90249,43.2493427 136.080968,49.4278202 136.080968,56.9964552 L136.080968,60.8580037 L135.926506,60.8580037 Z" id="Shape" sketch:type="MSShapeGroup"></path>
            </g>
        </g>
    </g>
</svg>