<?xml version="1.0" encoding="UTF-8" standalone="no"?>
<svg width="130px" height="130px" viewBox="0 0 130 130" version="1.1" xmlns="http://www.w3.org/2000/svg" xmlns:xlink="http://www.w3.org/1999/xlink" xmlns:sketch="http://www.bohemiancoding.com/sketch/ns">
    <!-- Generator: Sketch 3.4 (15575) - http://www.bohemiancoding.com/sketch -->
    <title>telescope</title>
    <desc>Created with Sketch.</desc>
    <defs></defs>
    <g id="Page-1" stroke="none" stroke-width="1" fill="none" fill-rule="evenodd" sketch:type="MSPage">
        <g id="Artboard-1" sketch:type="MSArtboardGroup" transform="translate(-69.000000, -30.000000)" fill="#808080">
            <g id="telescope" sketch:type="MSLayerGroup" transform="translate(69.000000, 30.000000)">
                <path d="M95.9205845,11.8644702 C95.6317446,11.1423703 94.9096447,10.5646905 94.1875449,10.2758506 C93.3210251,10.1314306 92.4545054,10.1314306 91.8768255,10.5646905 L50.861556,36.7047038 C49.5617763,37.5712236 49.1285164,39.0154232 49.7061963,40.4596229 L50.4282961,41.9038225 L27.465522,56.4902388 C26.3101623,57.2123386 25.7324824,58.8009582 26.4545822,60.2451578 L27.321102,61.9781974 L1.46992859,75.9869338 C0.170148925,76.7090336 -0.407530927,78.4420732 0.314568888,79.8862728 L5.51368756,90.5733501 C5.94694745,91.5842898 6.95788719,92.1619697 8.1132469,92.1619697 C8.54650679,92.1619697 8.83534671,92.0175497 9.2686066,91.8731297 L35.6974599,80.1751127 L36.7083996,82.1969922 C37.1416595,83.2079319 38.1525992,83.9300318 39.3079589,83.9300318 C39.5967989,83.9300318 40.0300587,83.9300318 40.3188987,83.7856118 L65.5923922,74.2538942 L66.458912,76.1313538 C66.8921719,77.1422935 67.9031116,77.8643933 69.0584713,77.8643933 C69.3473113,77.8643933 69.7805712,77.8643933 70.0694111,77.7199733 L115.850539,60.3895778 C116.572639,60.1007378 117.150319,59.523058 117.439159,58.8009582 C117.727999,58.0788584 117.727999,57.2123386 117.294739,56.4902388 L95.9205845,11.8644702 L95.9205845,11.8644702 Z M9.41302657,85.5186514 L6.66904727,79.7418528 L29.6318214,67.177316 L33.2423205,74.8315741 L9.41302657,85.5186514 L9.41302657,85.5186514 Z M40.6077386,77.4311334 L32.6646406,60.1007378 L52.8834355,47.2473611 L62.9928329,68.9103556 L40.6077386,77.4311334 L40.6077386,77.4311334 Z M70.358251,71.221075 L56.0606747,40.3152029 L92.3100854,17.3524288 L110.795841,56.0569789 L70.358251,71.221075 L70.358251,71.221075 Z M128.415076,60.3895778 C127.981816,60.6784177 127.548556,60.6784177 127.115297,60.6784177 C126.104357,60.6784177 125.093417,60.1007378 124.515737,59.0897981 L98.2313039,4.21021211 C97.5092041,2.76601248 98.0868839,1.03297292 99.5310836,0.310873108 C100.975283,-0.411226708 102.708323,0.166453145 103.430423,1.61065278 L129.714856,56.4902388 C130.436956,57.9344384 129.859276,59.667478 128.415076,60.3895778 L128.415076,60.3895778 Z M79.3122887,102.704627 L79.3122887,98.0831881 C79.3122887,93.3173294 75.4129497,89.4179904 70.6470909,89.4179904 L59.2379138,89.4179904 C54.4720551,89.4179904 50.5727161,93.3173294 50.5727161,98.0831881 L50.5727161,102.704627 L28.6208817,125.089721 C27.465522,126.245081 27.465522,128.12254 28.6208817,129.13348 C29.1985615,129.71116 29.9206613,130 30.6427611,130 C31.364861,130 32.0869608,129.71116 32.6646406,129.13348 L54.760895,106.748386 L62.415153,106.748386 L62.415153,127.111601 C62.415153,128.70022 63.7149327,130 65.3035523,130 C66.8921719,130 68.1919516,128.70022 68.1919516,127.111601 L68.1919516,106.748386 L75.4129497,106.748386 L97.5092041,129.13348 C98.0868839,129.71116 98.8089837,130 99.5310836,130 C100.253183,130 100.975283,129.71116 101.552963,129.13348 C102.708323,127.978121 102.708323,126.100661 101.552963,125.089721 L79.3122887,102.704627 L79.3122887,102.704627 Z M56.3495146,98.0831881 C56.3495146,96.4945686 57.6492943,95.1947889 59.2379138,95.1947889 L70.7915109,95.1947889 C72.3801305,95.1947889 73.6799102,96.4945686 73.6799102,98.0831881 L73.6799102,100.971587 L56.3495146,100.971587 L56.3495146,98.0831881 L56.3495146,98.0831881 Z" id="Shape" sketch:type="MSShapeGroup"></path>
            </g>
        </g>
    </g>
</svg>