<svg width="580" height="596" viewBox="0 0 580 596" xmlns="http://www.w3.org/2000/svg"><title>Slice 1</title><desc>Created with Sketch.</desc><g fill="none" fill-rule="evenodd" class="badge-color"><g><g font-size="36" font-family="Ubuntu Mono" fill="#fff"><text transform="translate(182 440)"><tspan x="0" y="30" fill="#fff">CODE &amp; CRAFT</tspan></text></g><g fill="#fff"><g><path d="M448.837 197.218c-14.297-7.687-25.535-18.34-25.535-18.34l-30.162-32.61c-2.835-3.065-5.282.44-5.282.44l-22.32 22.34c-2.964 2.784-.17 4.835-.17 4.835l3.962 4.288c-1.628 1.57-5.445 6.013-10.604 16.967-6.958 14.77-17.124 28.192-24.753 37.483-13.696 16.674-43.73 42.737-43.73 42.737-59.918 49.127-80.74 74.546-80.74 74.546-9.91 12.296-15.27 16.722-15.27 16.722l-20.24 19.153c-8.122 7.172-2.796 8.222-2.796 8.222s16.14 1.143 31.504-1.68c0 0 5.034-1.092 9.13-8.992l11.89-22.527s7.978-17.92 85.02-80.278c0 0 35.46-29.735 53.388-52.238 0 0 6.092-8.294 18.012-21.036l8.7-8.66c14.2 11.955 21.505 35.85 21.505 35.85.594.644 2.8-.143 2.8-.143 19.408-9.785 35.736-33.584 35.736-33.584 1.3-2.204-.043-3.492-.043-3.492z" id="Shape"/></g></g><g><path d="M363.992 340.184l-58.258 52.455-103.09-102.37 70.31-63.307 91.038 113.22z" id="Shape" stroke="#fff" stroke-width="5"/><path d="M272.822 213.833c1.315 1.46 1.284 3.652-.07 4.87l-81.177 73.094c-1.353 1.218-3.43 1.138-4.614-.18-1.185-1.316-1.458-3.743-.607-5.395l2.626-5.095c.85-1.652.34-4.342-1.134-5.98l-1.908-2.118c-1.474-1.638-1.573-3.974-.22-5.192l63.82-57.463c1.353-1.22 3.665-.877 5.14.76l1.907 2.12c1.474 1.637 4.057 2.353 5.74 1.59l5.045-2.283c1.683-.76 4.138-.188 5.452 1.27zM132.532 189.808c2.138 10.155 8.5 22.713 18.7 28.797 8.893 5.304 17.938 3.01 25.114 13.19 3.39 4.81 3.92 9.355 6.163 14.205 2.174 4.7 8.825 4.52 6.633-.216-1.875-4.054-2.736-8.18-4.823-12.312-3.392-6.72-8.886-12.26-15.322-15.676-3.85-2.045-7.706-2.24-11.498-3.21-4.625-1.186-8.88-5.064-11.873-9.365-2.865-4.112-5.167-9.803-5.996-13.738-.99-4.71-8.098-6.424-7.098-1.674zM156.658 168.084c2.14 10.154 8.502 22.713 18.702 28.798 8.89 5.304 17.934 3.01 25.11 13.19 3.393 4.81 3.92 9.356 6.165 14.204 2.176 4.7 8.827 4.52 6.635-.216-1.876-4.053-2.738-8.18-4.825-12.31-3.392-6.72-8.885-12.26-15.32-15.677-3.852-2.045-7.706-2.24-11.498-3.212-4.625-1.184-8.878-5.063-11.873-9.363-2.865-4.114-5.167-9.804-5.996-13.74-.993-4.707-8.1-6.422-7.1-1.673zM180.56 146.564c2.136 10.155 8.5 22.714 18.7 28.798 8.89 5.304 17.937 3.01 25.112 13.19 3.392 4.81 3.92 9.355 6.164 14.204 2.175 4.7 8.826 4.52 6.635-.217-1.875-4.054-2.735-8.18-4.822-12.312-3.392-6.72-8.886-12.26-15.322-15.677-3.85-2.043-7.706-2.238-11.5-3.21-4.623-1.184-8.876-5.063-11.872-9.363-2.865-4.115-5.167-9.804-5.995-13.74-.993-4.707-8.1-6.42-7.1-1.673z" fill="#fff"/></g><g><path d="M579.202 342.466c2.448-16.417-15.36-34.392-15.798-51.368-.42-16.504 16.535-35.36 13.204-52.107-3.32-16.745-26.12-27.44-32.022-42.82-6.065-15.81 3.502-39.408-4.993-53.578-8.648-14.42-33.66-16.492-44.506-28.986-10.944-12.632-9.91-38.167-22.734-48.582C459.466 54.56 435.265 61.3 420.8 53.256c-14.414-8.02-21.953-32.4-37.623-37.794-15.51-5.325-35.98 9.416-52.38 6.87C314.683 19.876 299.385-.42 282.735.02c-16.2.42-30.463 21.426-46.893 24.808-16.425 3.377-37.576-10.328-52.667-4.3-15.51 6.175-21.88 30.928-35.778 39.574-14.16 8.8-38.63 3.34-50.888 14.375-12.382 11.166-10.056 36.627-20.28 49.717-10.27 13.122-35.134 16.505-43.02 31.234-7.87 14.704 2.825 37.824-2.467 53.764-5.226 15.815-27.49 27.627-29.95 44.323-2.43 16.424 15.352 34.4 15.784 51.368.433 16.51-16.516 35.374-13.197 52.12 3.32 16.746 26.126 27.434 32.02 42.803 6.06 15.82-3.488 39.438 5 53.59 8.637 14.406 33.66 16.504 44.5 28.998 10.95 12.62 9.91 38.154 22.753 48.582 12.88 10.477 37.076 3.724 51.534 11.768 14.415 8 21.96 32.406 37.618 37.788 15.51 5.32 35.986-9.41 52.386-6.884 16.11 2.483 31.4 22.76 48.063 22.32 16.187-.41 30.45-21.407 46.887-24.796 16.43-3.395 37.563 10.316 52.66 4.3 15.512-6.18 21.882-30.928 35.78-39.58 14.146-8.82 38.628-3.333 50.887-14.388 12.375-11.147 10.043-36.602 20.28-49.705 10.268-13.128 35.145-16.48 43.013-31.252 7.863-14.674-2.82-37.807 2.443-53.758 5.274-15.797 27.54-27.62 30-44.324zM336.655 533.372c-15.657 3.22-31.625 4.847-47.46 4.847-112.865 0-211.023-81.97-233.416-194.89C29.755 212.002 113.395 83.59 242.24 57.066c15.658-3.22 31.626-4.86 47.466-4.86 112.86 0 211.012 81.968 233.41 194.896 26.024 131.314-57.63 259.734-186.463 286.27z" fill="#fff"/><ellipse stroke="#D64541" stroke-width="5" stroke-dasharray="2" opacity=".702" cx="289.4" cy="295.2" rx="234.5" ry="239"/></g></g></g></svg>