<svg xmlns="http://www.w3.org/2000/svg" xmlns:xlink="http://www.w3.org/1999/xlink" xmlns:sketch="http://www.bohemiancoding.com/sketch/ns" width="580px" height="596px" viewBox="0 0 580 596" version="1.1">
    <style>
	.style0{
		fill:	none;
		fill-rule:	evenodd;
	}
	.style1{
		font-size:	36;
		font-family:	Ubuntu Mono;
		fill:	#888888;
	}
	.style2{
		fill:	#ffffff;
	}
	.style3{
		fill:	#888888;
	}
	.style4{
		stroke:	#FFFFFF;
		stroke-width:	5;
	}
	.style5{
		opacity:	0.702367071;
		stroke:	#D64541;
		stroke-width:	5;
		stroke-dasharray:	2;
	}
</style><!-- Generator: Sketch 3.2.2 (9983) - http://www.bohemiancoding.com/sketch -->
    <title>Slice 1</title>
    <desc>Created with Sketch.</desc>
    <defs/>
    <g id="Page-1" sketch:type="MSPage" class="style0">
        <g id="flatLogo" sketch:type="MSLayerGroup">
            <g id="code-craft" transform="translate(182.000000, 440.000000)" sketch:type="MSTextLayer" class="style1">
                <text id="CODE-&amp;-CRAFT">
                    <tspan x="0" y="30" class="style1">CODE &amp; CRAFT</tspan>
                </text>
            </g>
            <g id="axe" transform="translate(309.976763, 270.331241) rotate(2.000000) translate(-309.976763, -270.331241) translate(171.976763, 141.331241)" sketch:type="MSShapeGroup" class="style3">
                <g id="Layer_41">
                    <path d="M274.268 51.04 C259.705 43.855 248.096 33.6 248.096 33.6 L216.799 2.052 C213.858 -0.913 211.533 2.678 211.533 2.678 L190 25.793 C187.136 28.681 190 30.634 190 30.634 L194.112 34.783 C192.539 36.407 188.878 40.984 184.104 52.116 C177.666 67.126 167.972 80.901 160.669 90.458 C147.561 107.608 118.447 134.717 118.447 134.717 C60.263 185.931 40.334 212.074 40.334 212.074 C30.859 224.714 25.656 229.327 25.656 229.327 L6.09 249.184 C-1.778 256.639 3.583 257.503 3.583 257.503 C3.584 257.503 19.761 258.08 35.021 254.718 C35.021 254.718 40.015 253.451 43.832 245.41 L54.933 222.471 C54.933 222.471 62.28 204.274 137.119 139.232 C137.119 139.232 171.53 108.262 188.667 85.136 C188.667 85.136 194.466 76.631 205.938 63.474 L214.334 54.511 C228.948 65.966 237.088 89.6 237.088 89.6 C237.705 90.222 239.882 89.359 239.882 89.359 C258.944 78.897 274.434 54.53 274.434 54.53 C275.656 52.281 274.268 51.04 274.268 51.04 L274.268 51.04 L274.268 51.04 Z" id="Shape"/>
                </g>
            </g>
            <g id="coffee" transform="rotate(-42.000000) " sketch:type="MSShapeGroup">
                <path d="M284.627 402.317 L206.218 402.317 L198.105 257.234 L292.734 257.234 L284.627 402.317 L284.627 402.317 Z" id="Shape" class="style4"/>
                <path d="M301.423 247.386 C301.423 249.352 299.934 250.96 298.111 250.96 L188.855 250.96 C187.034 250.96 185.545 249.511 185.545 247.739 C185.545 245.967 186.966 243.98 188.705 243.321 L194.066 241.291 C195.804 240.633 197.226 238.292 197.226 236.089 L197.226 233.237 C197.226 231.034 198.715 229.232 200.536 229.232 L286.43 229.232 C288.252 229.232 289.742 231.034 289.742 233.237 L289.742 236.089 C289.742 238.292 291.182 240.554 292.944 241.113 L298.221 242.792 C299.981 243.353 301.423 245.421 301.423 247.386 L301.423 247.386 L301.423 247.386 Z" id="Shape" class="style3"/>
                <path d="M213.226 135.637 C208.019 144.616 204.343 158.209 207.853 169.558 C210.913 179.451 219.171 183.8 217.692 196.169 C216.993 202.014 214.344 205.746 212.767 210.852 C211.237 215.801 216.301 220.119 217.843 215.131 C219.161 210.863 221.282 207.221 222.497 202.752 C224.473 195.488 224.098 187.692 221.6 180.846 C220.105 176.749 217.37 174.024 215.202 170.764 C212.558 166.788 211.992 161.058 212.644 155.857 C213.267 150.883 215.365 145.112 217.382 141.633 C219.797 137.469 215.662 131.437 213.226 135.637 L213.226 135.637 L213.226 135.637 Z" id="Shape" class="style3"/>
                <path d="M245.697 135.637 C240.492 144.616 236.816 158.209 240.325 169.558 C243.384 179.451 251.64 183.8 250.162 196.169 C249.463 202.014 246.815 205.746 245.238 210.852 C243.71 215.801 248.774 220.119 250.314 215.131 C251.632 210.863 253.753 207.22 254.967 202.752 C256.942 195.488 256.568 187.692 254.071 180.846 C252.577 176.749 249.843 174.024 247.675 170.764 C245.03 166.788 244.465 161.058 245.117 155.857 C245.74 150.883 247.837 145.112 249.854 141.633 C252.267 137.469 248.132 131.437 245.698 135.637 L245.697 135.637 L245.697 135.637 Z" id="Shape" class="style3"/>
                <path d="M277.865 135.637 C272.657 144.616 268.982 158.209 272.492 169.558 C275.551 179.451 283.81 183.8 282.331 196.169 C281.632 202.014 278.983 205.746 277.406 210.852 C275.876 215.801 280.94 220.119 282.483 215.131 C283.801 210.863 285.922 207.221 287.137 202.752 C289.113 195.488 288.738 187.692 286.241 180.846 C284.745 176.749 282.011 174.024 279.842 170.764 C277.198 166.788 276.633 161.058 277.284 155.857 C277.908 150.881 280.005 145.112 282.023 141.633 C284.436 137.47 280.3 131.438 277.865 135.637 L277.865 135.637 L277.865 135.637 Z" id="Shape" class="style3"/>
            </g>
            <g id="badge" sketch:type="MSShapeGroup">
                <path d="M579.20192 342.466 C581.6501 326.049 563.843 308.074 563.404 291.098 C562.98425 274.594 579.939 255.737 576.608 238.991 C573.28853 222.245 550.488 211.55 544.586 196.17 C538.52072 180.361 548.088 156.762 539.593 142.592 C530.94476 128.173 505.933 126.1 495.087 113.606 C484.14311 100.974 485.178 75.439 472.353 65.024 C459.46643 54.559 435.265 61.3 420.801 53.256 C406.38599 45.237 398.847 20.856 383.177 15.462 C367.66577 10.137 347.197 24.878 330.797 22.333 C314.68277 19.875 299.385 -0.421 282.735 0.019 C266.53523 0.441 252.272 21.446 235.842 24.828 C219.4169 28.205 198.266 14.5 183.175 20.527 C167.66408 26.703 161.294 51.456 147.397 60.102 C133.23731 68.903 108.768 63.441 96.509 74.477 C84.12755 85.643 86.454 111.104 76.229 124.194 C65.96108 137.316 41.096 140.699 33.209 155.428 C25.34078 170.132 36.035 193.252 30.743 209.192 C25.51739 225.007 3.252 236.819 0.792 253.515 C-1.63792 269.939 16.145 287.914 16.577 304.883 C17.00966 321.394 0.061 340.257 3.38 357.003 C6.69929 373.749 29.506 384.437 35.401 399.806 C41.46101 415.627 31.912 439.244 40.401 453.396 C49.03697 467.802 74.061 469.9 84.901 482.394 C95.8508 495.013 94.809 520.548 107.653 530.976 C120.53357 541.453 144.729 534.7 159.187 542.744 C173.60183 550.745 181.147 575.15 196.805 580.532 C212.31596 585.851 232.791 571.122 249.191 573.648 C265.29896 576.131 280.591 596.409 297.253 595.968 C313.44041 595.559 327.703 574.561 344.14 571.172 C360.57092 567.777 381.703 581.488 396.8 575.473 C412.31156 569.291 418.682 544.544 432.579 535.892 C446.72615 527.072 471.208 532.559 483.467 521.504 C495.842 510.357 493.51 484.902 503.747 471.799 C514.01456 458.672 538.892 455.32 546.76 440.548 C554.62268 425.874 543.941 402.741 549.203 386.79 C554.47652 370.993 576.742 359.169 579.202 342.466 L579.20192 342.466 L579.20192 342.466 Z M336.65549 533.372 C320.9981 536.593 305.03 538.219 289.196 538.219 C176.33015 538.219 78.172 456.251 55.779 343.329 C29.75603 212.003 113.396 83.589 242.242 57.067 C257.89961 53.846 273.868 52.207 289.708 52.207 C402.56756 52.207 500.72 134.175 523.119 247.103 C549.14168 378.417 465.489 506.837 336.655 533.372 L336.65549 533.372 L336.65549 533.372 Z" id="ext-circle" class="style3"/>
                <ellipse id="int-circle" cx="289.4" cy="295.2" rx="234.5" ry="239" class="style5"/>
            </g>
        </g>
    </g>
</svg>
